<svg xmlns="http://www.w3.org/2000/svg" width="47" height="46" viewBox="0 0 47 46">
    <defs>
        <filter id="a" width="113.4%" height="124.2%" x="-6.7%" y="-12.1%" filterUnits="objectBoundingBox">
            <feOffset dx="-6" dy="6" in="SourceAlpha" result="shadowOffsetOuter1"/>
            <feColorMatrix in="shadowOffsetOuter1" result="shadowMatrixOuter1" values="0 0 0 0 0.129411765 0 0 0 0 0.160784314 0 0 0 0 0.352941176 0 0 0 1 0"/>
            <feMerge>
                <feMergeNode in="shadowMatrixOuter1"/>
                <feMergeNode in="SourceGraphic"/>
            </feMerge>
        </filter>
    </defs>
    <g fill="none" fill-rule="evenodd" filter="url(#a)" transform="translate(-49 -59)">
        <path fill="#333" d="M55.59 79c0-11.046 9.04-20 20.193-20 11.153 0 20.193 8.954 20.193 20s-9.04 20-20.193 20C64.631 99 55.59 90.046 55.59 79z"/>
        <path fill="#FFF" d="M67.81 80.29c.948 1.677 2.778 2.72 5.864 3.009-.44.325-.97.943-1.043 1.657-.554.349-1.667.464-2.533.198-1.214-.373-1.678-2.711-3.495-2.378-.393.072-.315.325.025.539.554.349 1.075.785 1.477 1.714.309.714.958 1.988 3.01 1.988.815 0 1.386-.095 1.386-.095s.016 1.821.016 2.529c0 .816-1.132 1.046-1.132 1.439 0 .155.374.17.675.17.595 0 1.833-.484 1.833-1.332 0-.674.012-2.94.012-3.337 0-.867.477-1.142.477-1.142s.06 4.628-.114 5.248c-.203.73-.57.626-.57.951 0 .484 1.49.12 1.984-.943.382-.827.215-5.367.215-5.367l.407-.008s.023 2.078.01 3.028c-.015.984-.083 2.228.517 2.815.394.385 1.673 1.062 1.673.444 0-.36-.7-.655-.7-1.628v-4.476c.558 0 .474 1.472.474 1.472l.041 2.734s-.123.997 1.107 1.414c.434.148 1.364.188 1.407-.06.044-.249-1.119-.619-1.13-1.39-.006-.471.022-.746.022-2.791s-.282-2.801-1.265-3.404c3.035-.304 4.913-1.034 5.828-2.991.072.002.373-.914.334-.914.205-.739.316-1.613.338-2.648-.005-2.806-1.385-3.799-1.65-4.265.39-2.125-.066-3.092-.278-3.423-.782-.271-2.72.696-3.779 1.378-1.727-.492-5.376-.444-6.744.127-2.525-1.76-3.861-1.49-3.861-1.49s-.864 1.505-.228 3.71c-.831 1.03-1.45 1.76-1.45 3.692 0 1.09.132 2.064.429 2.915-.037 0 .398.912.41.911z"/>
    </g>
</svg>
