<svg xmlns="http://www.w3.org/2000/svg" width="47" height="46" viewBox="0 0 47 46">
    <defs>
        <filter id="a" width="113.4%" height="124.2%" x="-6.7%" y="-12.1%" filterUnits="objectBoundingBox">
            <feOffset dx="-6" dy="6" in="SourceAlpha" result="shadowOffsetOuter1"/>
            <feColorMatrix in="shadowOffsetOuter1" result="shadowMatrixOuter1" values="0 0 0 0 0.129411765 0 0 0 0 0.160784314 0 0 0 0 0.352941176 0 0 0 1 0"/>
            <feMerge>
                <feMergeNode in="shadowMatrixOuter1"/>
                <feMergeNode in="SourceGraphic"/>
            </feMerge>
        </filter>
    </defs>
    <g fill="none" fill-rule="evenodd" filter="url(#a)" transform="translate(-22)">
        <path fill="#007BB6" d="M28.387 20c0-11.046 9.04-20 20.193-20 11.152 0 20.193 8.954 20.193 20s-9.04 20-20.193 20c-11.152 0-20.193-8.954-20.193-20z"/>
        <path fill="#FFF" d="M43.433 15.807h-4.57v13.618h4.57zM43.734 11.594c-.03-1.335-.992-2.352-2.555-2.352-1.564 0-2.586 1.017-2.586 2.352 0 1.308.992 2.354 2.526 2.354h.03c1.593 0 2.585-1.046 2.585-2.354zM59.913 21.616c0-4.182-2.254-6.13-5.261-6.13-2.427 0-3.513 1.323-4.12 2.25v-1.93h-4.57c.06 1.279 0 13.619 0 13.619h4.57V21.82c0-.407.03-.813.151-1.105.33-.813 1.082-1.655 2.345-1.655 1.654 0 2.315 1.249 2.315 3.079v7.286h4.57v-7.809z"/>
    </g>
</svg>
