<svg xmlns="http://www.w3.org/2000/svg" width="128" height="43" viewBox="0 0 128 43">
    <g fill="none" fill-rule="evenodd">
        <path fill="#FE1458" d="M9.499 17.853c2.62.888 5.78 1.919 8.982 2.947 7.414-5.064 14.673-10 14.673-10s1.662-1.272 3.259-2.665c1.182-1.03 2.095-2.853 1.944-4.147C38.01 1.013 36.3 0 32.774 0H10.576S2.236.002.498 7.064c-.017.291-.365 7.621 9 10.79"/>
        <path fill="#0ABCFF" d="M36.572 26.233s-9.62-2.71-18.091-5.433c-6.607 4.515-13.339 9.13-15.169 10.447C1.05 32.874.53 34.494.385 35.582 1.588 43 7.85 43 7.85 43h26.964c6.927 0 7.898-7.767 7.898-7.767.435-7.3-6.141-9-6.141-9"/>
        <path fill="#4A26FF" d="M.31 35.867A20.42 20.42 0 0 1 0 32.52V11.578c0-.21.01-.408.013-.611.046-1.07.161-2.416.434-3.675l.05-.228c-.016.292-.364 7.621 9.002 10.79 2.62.887 5.78 1.918 8.982 2.945a2657.95 2657.95 0 0 0-12.777 8.772s-5.94 4.601-2.128 11.889c0 0-2.715-1.712-3.267-5.593"/>
        <path fill="#FFF" d="M67.102 23.547a.906.906 0 0 1-.907.903H63.29a.905.905 0 0 1-.904-.903v-5.233c0-.497.406-.902.904-.902h2.905c.5 0 .907.405.907.902v5.233zm-.907-8.44H63.29a3.215 3.215 0 0 0-3.216 3.207v5.233a3.214 3.214 0 0 0 3.216 3.206h2.905a3.214 3.214 0 0 0 3.218-3.206v-5.233a3.215 3.215 0 0 0-3.218-3.206zM89.193 23.548a.906.906 0 0 1-.905.905h-2.905a.907.907 0 0 1-.906-.905v-5.233c0-.497.406-.902.906-.902h2.905c.5 0 .905.405.905.902v5.233zm-.905-8.439h-2.905a3.216 3.216 0 0 0-3.218 3.206v5.233a3.215 3.215 0 0 0 3.218 3.206h2.905a3.214 3.214 0 0 0 3.216-3.206v-5.233a3.215 3.215 0 0 0-3.216-3.206zM112.611 23.547a.906.906 0 0 1-.906.903h-2.906a.905.905 0 0 1-.905-.903v-5.233c0-.497.406-.902.905-.902h2.906c.5 0 .906.405.906.902v5.233zm-.906-8.44h-2.906a3.215 3.215 0 0 0-3.216 3.207v5.233a3.215 3.215 0 0 0 3.216 3.206h2.906a3.214 3.214 0 0 0 3.216-3.206v-5.233a3.215 3.215 0 0 0-3.216-3.206zM79.795 26.423V24.8s.007-.117-.057-.204c-.064-.085-.15-.12-.15-.12s-.068-.026-.115-.026H75a.905.905 0 0 1-.906-.903v-5.233c0-.497.406-.902.906-.902h4.451s.124.001.22-.078a.326.326 0 0 0 .124-.256V15.44s.003-.111-.063-.194c-.065-.082-.14-.11-.14-.11s-.06-.028-.122-.028H75a3.215 3.215 0 0 0-3.216 3.206v5.233A3.215 3.215 0 0 0 75 26.753h4.466s.118.005.219-.084a.327.327 0 0 0 .11-.246M124.795 15.108h2.03c.13 0 .224.088.224.088s.088.062.108.209a.337.337 0 0 1-.074.247l-3.701 5.075 4.038 5.507s.066.087.06.21c-.007.099-.055.159-.055.159-.108.16-.29.15-.29.15h-2.038s-.101 0-.16-.04c-.057-.038-.105-.09-.105-.09l-2.881-3.936-2.867 3.924s-.053.078-.124.112c-.071.034-.15.03-.15.03h-2.035c-.11 0-.154-.03-.154-.03s-.16-.066-.185-.231c-.024-.164.045-.25.045-.25l4.036-5.515-3.71-5.067s-.107-.119-.076-.283a.317.317 0 0 1 .154-.22s.052-.044.18-.05h2.055c.2.015.271.16.271.16l2.56 3.5 2.559-3.503s.04-.06.1-.1a.401.401 0 0 1 .185-.056M100.902 23.547a.905.905 0 0 1-.905.903h-2.906a.904.904 0 0 1-.905-.903v-5.233c0-.497.405-.902.905-.902h2.906c.499 0 .905.405.905.902v5.233zm-5.09-11.91h-1.604s-.136-.014-.235.098c-.1.11-.098.234-.098.234v11.578a3.214 3.214 0 0 0 3.216 3.206h2.906a3.213 3.213 0 0 0 3.215-3.206v-5.233a3.214 3.214 0 0 0-3.215-3.206h-2.906c-.286 0-.63.066-.954.223v-3.369s-.004-.117-.09-.215c-.099-.111-.236-.11-.236-.11zM57.159 17.745l-.031-.145a3.08 3.08 0 0 0-2.74-2.488l-3.309-.002c-.845 0-1.391.313-1.583.445-.638.42-1.643 1.536-1.374 3.027.24 1.32 1.557 2.098 2.314 2.442l4.159 1.99.47.218s.335.171.314.605c-.022.432-.43.615-.676.615l-3.744.003c-.064-.009-.382-.064-.544-.45l-.025-.056s-.046-.103-.11-.142c-.063-.036-.098-.069-.215-.069h-1.67a.338.338 0 0 0-.278.144c-.088.11-.054.266-.054.266l.024.115a3.08 3.08 0 0 0 2.74 2.49l3.876.001c.845 0 1.39-.312 1.582-.444.637-.423 1.643-1.536 1.374-3.029-.24-1.318-1.558-2.097-2.315-2.44l-4.118-1.977-.49-.285s-.435-.235-.308-.708c0 0 .084-.458.651-.458l3.178-.004c.06.008.38.064.543.451 0 0 .08.266.337.266h1.703s.15.003.246-.12c.095-.126.073-.26.073-.26"/>
    </g>
</svg>
