<svg xmlns="http://www.w3.org/2000/svg" width="47" height="46" viewBox="0 0 47 46">
    <defs>
        <filter id="a" width="113.4%" height="124.2%" x="-6.7%" y="-12.1%" filterUnits="objectBoundingBox">
            <feOffset dx="-6" dy="6" in="SourceAlpha" result="shadowOffsetOuter1"/>
            <feColorMatrix in="shadowOffsetOuter1" result="shadowMatrixOuter1" values="0 0 0 0 0.129411765 0 0 0 0 0.160784314 0 0 0 0 0.352941176 0 0 0 1 0"/>
            <feMerge>
                <feMergeNode in="shadowMatrixOuter1"/>
                <feMergeNode in="SourceGraphic"/>
            </feMerge>
        </filter>
    </defs>
    <g fill="none" fill-rule="evenodd" filter="url(#a)" transform="translate(-131)">
        <path fill="#4099FF" d="M137.2 20c0-11.046 9.04-20 20.193-20 11.152 0 20.193 8.954 20.193 20s-9.04 20-20.193 20c-11.152 0-20.193-8.954-20.193-20z"/>
        <path fill="#FFF" d="M156.893 15.925l.043.692-.706-.084c-2.567-.325-4.81-1.427-6.713-3.277l-.931-.918-.24.678c-.508 1.511-.183 3.107.875 4.18.564.594.437.678-.536.325-.339-.113-.635-.197-.663-.155-.099.099.24 1.384.507 1.892.367.707 1.115 1.399 1.933 1.808l.69.325-.817.014c-.79 0-.818.014-.734.31.282.919 1.397 1.893 2.638 2.317l.874.297-.761.452a7.99 7.99 0 0 1-3.78 1.045c-.635.014-1.157.07-1.157.113 0 .141 1.72.932 2.722 1.243 3.005.918 6.573.522 9.253-1.045 1.904-1.116 3.808-3.334 4.696-5.48.48-1.144.96-3.235.96-4.237 0-.65.042-.735.832-1.512.465-.452.902-.946.987-1.087.141-.268.127-.268-.592-.028-1.2.423-1.368.367-.776-.269.437-.452.959-1.27.959-1.51 0-.043-.212.027-.451.155-.254.14-.818.353-1.242.48l-.761.24-.691-.466c-.381-.254-.917-.537-1.2-.622-.718-.197-1.819-.17-2.467.057-1.763.635-2.878 2.274-2.75 4.067z"/>
    </g>
</svg>
